<svg width="304" height="300" viewBox="0 0 304 300" fill="none" xmlns="http://www.w3.org/2000/svg">
<rect width="304" height="300" fill="white"/>
<path d="M213.056 66.2324C196.699 53.0942 175.828 46.8585 154.8 46.5128C133.502 46.1622 112.826 52.523 95.118 64.2824C76.8644 76.3952 58.7127 92.0707 54.0679 113.392C49.563 134.068 65.2747 152.589 71.4651 172.829C77.8248 193.626 74.6613 218.798 90.7924 233.473C107.381 248.566 133.356 255.391 154.8 248.66C175.266 242.234 177.636 213.457 194.935 200.821C212.05 188.32 241.76 195.72 252.333 177.413C262.737 159.393 249.999 137.016 243.079 117.413C236.333 98.301 228.907 78.9633 213.056 66.2324Z" fill="#5274EC" fill-opacity="0.2"/>
<path d="M254.669 158.398C257.868 137.663 252.833 116.47 242.618 98.0866C232.273 79.4672 216.426 64.7413 197.389 55.2855C177.772 45.5339 155.121 37.6518 134.333 44.29C114.175 50.7265 105.991 73.5937 91.5578 89.0749C76.727 104.981 53.3458 114.827 48.7024 136.135C43.9257 158.048 51.003 183.955 67.5534 199.16C83.3519 213.671 109.459 201.336 129.051 209.999C148.434 218.57 156.881 248 178.022 248.003C198.83 248.003 211.84 225.783 225.357 209.988C238.535 194.59 251.569 178.491 254.669 158.398Z" fill="#5274EC" fill-opacity="0.2"/>
<path d="M195.659 240.517C215.215 232.921 231.051 217.964 241.865 199.926C252.817 181.657 257.647 160.57 256.317 139.355C254.953 117.491 250.454 93.9331 234.311 79.2499C218.658 65.0106 194.763 69.3569 174.139 64.5978C152.948 59.707 132.731 44.3814 111.956 51.0138C90.5906 57.8336 71.6929 76.9164 66.7999 98.8521C62.1324 119.789 85.8686 136.231 88.1621 157.53C90.4309 178.602 69.1673 200.631 79.7351 218.942C90.1393 236.963 115.887 237.119 136.324 240.928C156.248 244.642 176.708 247.879 195.659 240.517Z" fill="#5274EC" fill-opacity="0.2"/>
</svg>
